<svg width="25" height="24" viewBox="0 0 25 24" fill="none" xmlns="http://www.w3.org/2000/svg">
<g clip-path="url(#clip0_18421_14053)">
<path d="M8.83666 13.8656L8.35284 15.7318L6.48666 15.8009C5.93372 14.7641 5.58813 13.5891 5.58813 12.345C5.58813 11.17 5.86461 9.99499 6.41755 9.02734L8.07637 9.30381L8.76755 10.9626C8.62931 11.3773 8.56019 11.8612 8.56019 12.345C8.56019 12.8979 8.62931 13.3818 8.83666 13.8656Z" fill="#FBBB00"/>
<path d="M19.9647 10.9629C20.0339 11.3776 20.103 11.8614 20.103 12.3452C20.103 12.8982 20.0339 13.382 19.9647 13.8658C19.6192 15.5247 18.7206 16.9761 17.4074 18.0129L15.3339 17.8747L15.0574 16.0776C15.8868 15.5938 16.578 14.8335 16.9236 13.8658H13.053V10.9629H16.9927H19.9647Z" fill="#518EF8"/>
<path d="M17.4074 18.0133C16.1633 18.9809 14.5736 19.603 12.8456 19.603C10.0809 19.603 7.66182 18.0824 6.48682 15.8015L8.83682 13.8662C9.45887 15.525 11.0486 16.7 12.8456 16.7C13.6751 16.7 14.3662 16.4927 15.0574 16.078L17.4074 18.0133Z" fill="#28B446"/>
<path d="M17.4763 6.74671L15.1263 8.68201C14.4351 8.2673 13.6748 8.05995 12.8454 8.05995C10.9792 8.05995 9.32042 9.30407 8.76748 10.9629L6.41748 9.0276C7.59248 6.6776 10.0116 5.08789 12.8454 5.08789C14.5734 5.08789 16.2322 5.70995 17.4763 6.74671Z" fill="#F14336"/>
</g>
<defs>
<clipPath id="clip0_18421_14053">
<rect width="23.5" height="23.5" fill="white" transform="translate(0.75 0.25)"/>
</clipPath>
</defs>
</svg>
